<svg xmlns:mydata="http://www.w3.org/2000/svg" mydata:contrastcolor="ffffff" mydata:template="SingleColorHex1"
    mydata:presentation="2.5" mydata:layouttype="undefined" mydata:specialfontid="undefined" mydata:id1="706"
    mydata:id2="1059" mydata:companyname="bernalarriaga.com" mydata:companytagline="" version="1.1"
    xmlns="http://www.w3.org/2000/svg" xmlns:xlink="http://www.w3.org/1999/xlink" viewBox="0 35 550 400">
    <rect width="100%" height="100%" fill="#e2e1e1" />
    <g fill="#3d3935" fill-rule="nonzero" stroke="none" stroke-width="1" stroke-linecap="butt" stroke-linejoin="miter"
        stroke-miterlimit="10" stroke-dasharray="" stroke-dashoffset="0" font-family="none" font-weight="none"
        font-size="none" text-anchor="none" style="mix-blend-mode: normal">
        <g
            data-paper-data="{&quot;isGlobalGroup&quot;:true,&quot;bounds&quot;:{&quot;x&quot;:65,&quot;y&quot;:172.25284149571445,&quot;width&quot;:420,&quot;height&quot;:125.49431700857116}}">
            <g data-paper-data="{&quot;isPrimaryText&quot;:true}">
                <path
                    d="M66.61166,295.48213v0v0v-16.56304c0,-0.57352 -0.16153,-1.03632 -0.48459,-1.38842c-0.32306,-0.3521 -0.69875,-0.52814 -1.12707,-0.52814h9.32148c2.72965,0.09438 4.65711,0.78223 5.78236,2.06357c1.12526,1.28134 1.45557,2.67339 0.99095,4.17615c-0.46462,1.50276 -1.72418,2.62802 -3.77868,3.37577c2.14888,0.81309 3.48103,2.06357 3.99647,3.75146c0.51544,1.68788 0.21053,3.2578 -0.91472,4.70974c-1.12526,1.45194 -3.06723,2.2251 -5.82592,2.31948h-9.57194c0.42832,0 0.80401,-0.17605 1.12707,-0.52814c0.32306,-0.3521 0.48459,-0.8149 0.48459,-1.38842zM73.28697,286.19332v0v0c1.41564,-0.04356 2.46286,-0.47733 3.14164,-1.3013c0.67878,-0.82398 1.00547,-1.77682 0.98006,-2.85851c-0.02541,-1.0817 -0.39021,-2.04543 -1.0944,-2.89118c-0.70419,-0.84576 -1.72781,-1.26864 -3.07086,-1.26864h-2.77684v8.31963zM70.46657,287.06449v0v9.46304h3.07086c1.13252,0 2.02909,-0.32124 2.68972,-0.96373c0.66063,-0.64248 1.09259,-1.43016 1.29586,-2.36304c0.20327,-0.93287 0.18512,-1.86756 -0.05445,-2.80407c-0.23957,-0.9365 -0.69149,-1.726 -1.35575,-2.36848c-0.66426,-0.64248 -1.53724,-0.96373 -2.61894,-0.96373z"
                    data-paper-data="{&quot;glyphName&quot;:&quot;B&quot;,&quot;glyphIndex&quot;:0,&quot;firstGlyphOfWord&quot;:true,&quot;word&quot;:1}">
                </path>
                <path
                    d="M91.14587,295.48213v0v-16.06212c0,-0.71871 -0.16334,-1.3013 -0.49003,-1.74778c-0.32669,-0.44647 -0.70419,-0.66971 -1.13252,-0.66971h15.64832l0.62071,3.77868c-0.29765,-0.77679 -0.86209,-1.45013 -1.69333,-2.02002c-0.83124,-0.56989 -1.88208,-0.85483 -3.15253,-0.85483h-5.9566v8.84233h3.14709c0.82761,0 1.52273,-0.25046 2.08535,-0.75138c0.56263,-0.50092 0.91654,-1.01636 1.06173,-1.54632v5.49924c-0.14519,-0.52996 -0.49911,-1.0454 -1.06173,-1.54632c-0.56263,-0.50092 -1.25775,-0.75138 -2.08535,-0.75138h-3.14709v8.84233h5.9566c1.27045,0 2.32129,-0.28494 3.15253,-0.85483c0.83124,-0.56989 1.39568,-1.24323 1.69333,-2.02002l-0.62071,3.77868h-15.64832c0.42832,0 0.80583,-0.17605 1.13252,-0.52814c0.32669,-0.3521 0.49003,-0.8149 0.49003,-1.38842z"
                    data-paper-data="{&quot;glyphName&quot;:&quot;E&quot;,&quot;glyphIndex&quot;:1,&quot;word&quot;:1}">
                </path>
                <path
                    d="M119.29542,288.20789v0v0v-10.33421h3.08175c1.13252,0 2.02909,0.35028 2.68972,1.05084c0.66063,0.70056 1.09259,1.56084 1.29586,2.58083c0.20327,1.01999 0.18512,2.03998 -0.05445,3.05997c-0.23957,1.01999 -0.69149,1.87482 -1.35575,2.56449c-0.66426,0.68967 -1.53724,1.04903 -2.61894,1.07807zM126.82011,288.22967v0c2.00368,-1.00184 3.16705,-2.37756 3.49011,-4.12715c0.32306,-1.74959 -0.11253,-3.34673 -1.30675,-4.79141c-1.19422,-1.44468 -3.05816,-2.21421 -5.5918,-2.30859h-9.57194c0.42832,0 0.80401,0.17605 1.12707,0.52814c0.32306,0.3521 0.48459,0.8149 0.48459,1.38842v16.56304c0,0.57352 -0.16153,1.03632 -0.48459,1.38842c-0.32306,0.3521 -0.69875,0.52814 -1.12707,0.52814h5.45568h1.62255c-0.42832,0 -0.80583,-0.17605 -1.13252,-0.52814c-0.32669,-0.3521 -0.49003,-0.8149 -0.49003,-1.38842v-6.40307h3.77868c0.37025,0 0.82216,0.05626 1.35575,0.16879c0.53359,0.11253 1.00547,0.38295 1.41564,0.81127c0.41017,0.42832 0.61526,1.118 0.61526,2.06902v2.07991c0,0.95102 0.17423,1.6534 0.5227,2.10713c0.34847,0.45373 0.81309,0.74775 1.39387,0.88206c0.58078,0.1343 1.22326,0.20146 1.92745,0.20146h2.19969c-0.60256,0 -1.11981,-0.21598 -1.55176,-0.64793c-0.43195,-0.43195 -0.64793,-0.94921 -0.64793,-1.55176v-2.28681c0,-0.99458 -0.33213,-1.97827 -0.9964,-2.95107c-0.66426,-0.9728 -1.49369,-1.54995 -2.48827,-1.73144z"
                    data-paper-data="{&quot;glyphName&quot;:&quot;R&quot;,&quot;glyphIndex&quot;:2,&quot;word&quot;:1}">
                </path>
                <path
                    d="M143.42672,295.48213v0v-15.81166l13.73175,17.72823h0.90383v-18.47961c0,-0.57352 0.16334,-1.03632 0.49003,-1.38842c0.32669,-0.3521 0.70419,-0.52814 1.13252,-0.52814h-2.52638h-1.61166c0.42832,0 0.80401,0.17605 1.12707,0.52814c0.32306,0.3521 0.48459,0.8149 0.48459,1.38842v12.22899l-10.90046,-14.14556h-6.50108c0.68967,0 1.32308,0.23231 1.90023,0.69693c0.57715,0.46462 0.86572,1.07081 0.86572,1.81856v15.96412c0,0.57352 -0.16153,1.03632 -0.48459,1.38842c-0.32306,0.3521 -0.69875,0.52814 -1.12707,0.52814h1.61166h2.52638c-0.42832,0 -0.80583,-0.17605 -1.13252,-0.52814c-0.32669,-0.3521 -0.49003,-0.8149 -0.49003,-1.38842z"
                    data-paper-data="{&quot;glyphName&quot;:&quot;N&quot;,&quot;glyphIndex&quot;:3,&quot;word&quot;:1}">
                </path>
                <path
                    d="M180.42949,295.62369v0v0l-1.27408,-3.28865h-7.63359l-1.26319,3.28865c-0.18875,0.53722 -0.1579,0.96736 0.09256,1.29041c0.25046,0.32306 0.608,0.48459 1.07262,0.48459h-4.75874c0.47188,0 0.94195,-0.16153 1.4102,-0.48459c0.46825,-0.32306 0.8149,-0.7532 1.03995,-1.29041l7.19801,-18.62117v0h1.12163l7.19801,18.62117c0.21779,0.53722 0.56263,0.96736 1.03451,1.29041c0.47188,0.32306 0.94013,0.48459 1.40476,0.48459h-7.72071c0.46462,0 0.80764,-0.16153 1.02906,-0.48459c0.22142,-0.32306 0.23776,-0.7532 0.049,-1.29041zM171.88117,291.40943v0h6.91488l-3.46288,-8.96212z"
                    data-paper-data="{&quot;glyphName&quot;:&quot;A&quot;,&quot;glyphIndex&quot;:4,&quot;word&quot;:1}">
                </path>
                <path
                    d="M196.53517,278.91908v0v16.06212c0,0.72597 -0.16153,1.31038 -0.48459,1.75322c-0.32306,0.44284 -0.69875,0.66426 -1.12707,0.66426h15.64832l0.62071,-3.77868c-0.29765,0.77679 -0.86209,1.45013 -1.69333,2.02002c-0.83124,0.56989 -1.88208,0.85483 -3.15253,0.85483h-5.9566v-17.57577c0,-0.57352 0.16153,-1.03632 0.48459,-1.38842c0.32306,-0.3521 0.69875,-0.52814 1.12707,-0.52814h-1.61166h-5.46657c0.42832,0 0.80401,0.17605 1.12707,0.52814c0.32306,0.3521 0.48459,0.8149 0.48459,1.38842z"
                    data-paper-data="{&quot;glyphName&quot;:&quot;L&quot;,&quot;glyphIndex&quot;:5,&quot;word&quot;:1}">
                </path>
                <path
                    d="M232.71034,295.62369v0v0l-1.27408,-3.28865h-7.63359l-1.26319,3.28865c-0.18875,0.53722 -0.1579,0.96736 0.09256,1.29041c0.25046,0.32306 0.608,0.48459 1.07262,0.48459h-4.75874c0.47188,0 0.94195,-0.16153 1.4102,-0.48459c0.46825,-0.32306 0.8149,-0.7532 1.03995,-1.29041l7.19801,-18.62117v0h1.12163l7.19801,18.62117c0.21779,0.53722 0.56263,0.96736 1.03451,1.29041c0.47188,0.32306 0.94013,0.48459 1.40476,0.48459h-7.72071c0.46462,0 0.80764,-0.16153 1.02906,-0.48459c0.22142,-0.32306 0.23776,-0.7532 0.049,-1.29041zM224.16202,291.40943v0h6.91488l-3.46288,-8.96212z"
                    data-paper-data="{&quot;glyphName&quot;:&quot;A&quot;,&quot;glyphIndex&quot;:6,&quot;word&quot;:1}">
                </path>
                <path
                    d="M252.86694,288.20789v0v0v-10.33421h3.08175c1.13252,0 2.02909,0.35028 2.68972,1.05084c0.66063,0.70056 1.09259,1.56084 1.29586,2.58083c0.20327,1.01999 0.18512,2.03998 -0.05445,3.05997c-0.23957,1.01999 -0.69149,1.87482 -1.35575,2.56449c-0.66426,0.68967 -1.53724,1.04903 -2.61894,1.07807zM260.39164,288.22967v0c2.00368,-1.00184 3.16705,-2.37756 3.49011,-4.12715c0.32306,-1.74959 -0.11253,-3.34673 -1.30675,-4.79141c-1.19422,-1.44468 -3.05816,-2.21421 -5.5918,-2.30859h-9.57194c0.42832,0 0.80401,0.17605 1.12707,0.52814c0.32306,0.3521 0.48459,0.8149 0.48459,1.38842v16.56304c0,0.57352 -0.16153,1.03632 -0.48459,1.38842c-0.32306,0.3521 -0.69875,0.52814 -1.12707,0.52814h5.45568h1.62255c-0.42832,0 -0.80583,-0.17605 -1.13252,-0.52814c-0.32669,-0.3521 -0.49003,-0.8149 -0.49003,-1.38842v-6.40307h3.77868c0.37025,0 0.82216,0.05626 1.35575,0.16879c0.53359,0.11253 1.00547,0.38295 1.41564,0.81127c0.41017,0.42832 0.61526,1.118 0.61526,2.06902v2.07991c0,0.95102 0.17423,1.6534 0.5227,2.10713c0.34847,0.45373 0.81309,0.74775 1.39387,0.88206c0.58078,0.1343 1.22326,0.20146 1.92745,0.20146h2.19969c-0.60256,0 -1.11981,-0.21598 -1.55176,-0.64793c-0.43195,-0.43195 -0.64793,-0.94921 -0.64793,-1.55176v-2.28681c0,-0.99458 -0.33213,-1.97827 -0.9964,-2.95107c-0.66426,-0.9728 -1.49369,-1.54995 -2.48827,-1.73144z"
                    data-paper-data="{&quot;glyphName&quot;:&quot;R&quot;,&quot;glyphIndex&quot;:7,&quot;word&quot;:1}">
                </path>
                <path
                    d="M279.08904,288.20789v0v0v-10.33421h3.08175c1.13252,0 2.02909,0.35028 2.68972,1.05084c0.66063,0.70056 1.09259,1.56084 1.29586,2.58083c0.20327,1.01999 0.18512,2.03998 -0.05445,3.05997c-0.23957,1.01999 -0.69149,1.87482 -1.35575,2.56449c-0.66426,0.68967 -1.53724,1.04903 -2.61894,1.07807zM286.61373,288.22967v0c2.00368,-1.00184 3.16705,-2.37756 3.49011,-4.12715c0.32306,-1.74959 -0.11253,-3.34673 -1.30675,-4.79141c-1.19422,-1.44468 -3.05816,-2.21421 -5.5918,-2.30859h-9.57194c0.42832,0 0.80401,0.17605 1.12707,0.52814c0.32306,0.3521 0.48459,0.8149 0.48459,1.38842v16.56304c0,0.57352 -0.16153,1.03632 -0.48459,1.38842c-0.32306,0.3521 -0.69875,0.52814 -1.12707,0.52814h5.45568h1.62255c-0.42832,0 -0.80583,-0.17605 -1.13252,-0.52814c-0.32669,-0.3521 -0.49003,-0.8149 -0.49003,-1.38842v-6.40307h3.77868c0.37025,0 0.82216,0.05626 1.35575,0.16879c0.53359,0.11253 1.00547,0.38295 1.41564,0.81127c0.41017,0.42832 0.61526,1.118 0.61526,2.06902v2.07991c0,0.95102 0.17423,1.6534 0.5227,2.10713c0.34847,0.45373 0.81309,0.74775 1.39387,0.88206c0.58078,0.1343 1.22326,0.20146 1.92745,0.20146h2.19969c-0.60256,0 -1.11981,-0.21598 -1.55176,-0.64793c-0.43195,-0.43195 -0.64793,-0.94921 -0.64793,-1.55176v-2.28681c0,-0.99458 -0.33213,-1.97827 -0.9964,-2.95107c-0.66426,-0.9728 -1.49369,-1.54995 -2.48827,-1.73144z"
                    data-paper-data="{&quot;glyphName&quot;:&quot;R&quot;,&quot;glyphIndex&quot;:8,&quot;word&quot;:1}">
                </path>
                <path
                    d="M301.26021,278.91908v0c0,5.52464 0,11.04566 0,16.56304c0,0.57352 -0.16153,1.03632 -0.48459,1.38842c-0.32306,0.3521 -0.69875,0.52814 -1.12707,0.52814h5.45568h1.62255c-0.42832,0 -0.80583,-0.17605 -1.13252,-0.52814c-0.32669,-0.3521 -0.49003,-0.8149 -0.49003,-1.38842c0,-5.51738 0,-11.0384 0,-16.56304c0,-0.57352 0.16334,-1.03632 0.49003,-1.38842c0.32669,-0.3521 0.70419,-0.52814 1.13252,-0.52814h-1.62255h-5.45568c0.42832,0 0.80401,0.17605 1.12707,0.52814c0.32306,0.3521 0.48459,0.8149 0.48459,1.38842z"
                    data-paper-data="{&quot;glyphName&quot;:&quot;I&quot;,&quot;glyphIndex&quot;:9,&quot;word&quot;:1}">
                </path>
                <path
                    d="M328.17924,295.62369v0v0l-1.27408,-3.28865h-7.63359l-1.26319,3.28865c-0.18875,0.53722 -0.1579,0.96736 0.09256,1.29041c0.25046,0.32306 0.608,0.48459 1.07262,0.48459h-4.75874c0.47188,0 0.94195,-0.16153 1.4102,-0.48459c0.46825,-0.32306 0.8149,-0.7532 1.03995,-1.29041l7.19801,-18.62117v0h1.12163l7.19801,18.62117c0.21779,0.53722 0.56263,0.96736 1.03451,1.29041c0.47188,0.32306 0.94013,0.48459 1.40476,0.48459h-7.72071c0.46462,0 0.80764,-0.16153 1.02906,-0.48459c0.22142,-0.32306 0.23776,-0.7532 0.049,-1.29041zM319.63092,291.40943v0h6.91488l-3.46288,-8.96212z"
                    data-paper-data="{&quot;glyphName&quot;:&quot;A&quot;,&quot;glyphIndex&quot;:10,&quot;word&quot;:1}">
                </path>
                <path
                    d="M357.91867,279.03887v0c-1.16155,-0.74775 -2.37393,-1.27408 -3.63712,-1.57899c-1.26319,-0.30491 -2.51912,-0.45736 -3.76779,-0.45736c-1.66248,0 -3.24146,0.42469 -4.73696,1.27408c-1.4955,0.84939 -2.71332,2.03817 -3.65345,3.56634c-0.94013,1.52817 -1.4102,3.31588 -1.4102,5.36312c0,2.80951 0.9964,5.21066 2.98919,7.20345c1.99279,1.99279 4.39394,2.98919 7.20345,2.98919c1.16881,0 2.22692,-0.16153 3.17431,-0.48459c0.94739,-0.32306 1.82763,-0.9238 2.64072,-1.80222c0.87117,0.5227 1.49913,1.28497 1.8839,2.28681v-8.73344c0,-0.57352 0.16153,-1.03632 0.48459,-1.38842c0.32306,-0.3521 0.69875,-0.52814 1.12707,-0.52814h-1.61166h-5.46657c0.42832,0 0.80401,0.17605 1.12707,0.52814c0.32306,0.3521 0.48459,0.8149 0.48459,1.38842v3.11442c0,1.28497 -0.31398,2.40115 -0.94195,3.34854c-0.62797,0.94739 -1.62799,1.42109 -3.00008,1.42109c-0.98732,0 -1.96012,-0.43558 -2.91841,-1.30675c-0.95828,-0.87117 -1.75141,-2.01639 -2.37937,-3.43566c-0.62797,-1.41927 -0.94195,-2.95289 -0.94195,-4.60085c0,-1.68425 0.36662,-3.31588 1.09985,-4.89486c0.73323,-1.57899 1.77682,-2.7478 3.13075,-3.50644c1.35394,-0.75864 2.97104,-0.81127 4.85131,-0.1579v4.61718z"
                    data-paper-data="{&quot;glyphName&quot;:&quot;G&quot;,&quot;glyphIndex&quot;:11,&quot;word&quot;:1}">
                </path>
                <path
                    d="M381.63616,295.62369v0v0l-1.27408,-3.28865h-7.63359l-1.26319,3.28865c-0.18875,0.53722 -0.1579,0.96736 0.09256,1.29041c0.25046,0.32306 0.608,0.48459 1.07262,0.48459h-4.75874c0.47188,0 0.94195,-0.16153 1.4102,-0.48459c0.46825,-0.32306 0.8149,-0.7532 1.03995,-1.29041l7.19801,-18.62117v0h1.12163l7.19801,18.62117c0.21779,0.53722 0.56263,0.96736 1.03451,1.29041c0.47188,0.32306 0.94013,0.48459 1.40476,0.48459h-7.72071c0.46462,0 0.80764,-0.16153 1.02906,-0.48459c0.22142,-0.32306 0.23776,-0.7532 0.049,-1.29041zM373.08784,291.40943v0h6.91488l-3.46288,-8.96212z"
                    data-paper-data="{&quot;glyphName&quot;:&quot;A&quot;,&quot;glyphIndex&quot;:12,&quot;word&quot;:1}">
                </path>
                <path
                    d="M398.31899,293.95759v0c-0.5227,0 -0.96917,0.18512 -1.33942,0.55537c-0.37025,0.37025 -0.55537,0.81672 -0.55537,1.33942c0,0.5227 0.18512,0.96917 0.55537,1.33942c0.37025,0.37025 0.81672,0.55537 1.33942,0.55537c0.5227,0 0.96917,-0.18512 1.33942,-0.55537c0.37025,-0.37025 0.55537,-0.81672 0.55537,-1.33942c0,-0.5227 -0.18512,-0.96917 -0.55537,-1.33942c-0.37025,-0.37025 -0.81672,-0.55537 -1.33942,-0.55537z"
                    data-paper-data="{&quot;glyphName&quot;:&quot;.&quot;,&quot;glyphIndex&quot;:13,&quot;word&quot;:1}">
                </path>
                <path
                    d="M425.54292,294.54562v0c-3.23057,1.26319 -6.08001,1.23052 -8.54832,-0.09801c-2.4683,-1.32853 -3.80046,-3.68431 -3.99647,-7.06733c-0.04356,-1.37209 0.19238,-2.79136 0.70782,-4.25782c0.51544,-1.46646 1.36664,-2.65343 2.55361,-3.56089c1.18696,-0.90746 2.76777,-1.216 4.74241,-0.92561v4.61718l4.26871,-4.22515c-1.56084,-1.14704 -3.48103,-1.82582 -5.76058,-2.03635c-2.46104,-0.08712 -4.49376,0.38295 -6.09816,1.4102c-1.6044,1.02725 -2.78229,2.37937 -3.53367,4.05637c-0.75138,1.67699 -1.07625,3.44474 -0.97462,5.30322c0.21779,2.9547 1.21963,5.28689 3.00552,6.99655c1.78589,1.70966 3.92206,2.59898 6.40851,2.66795c2.48645,0.06897 4.89486,-0.89113 7.22523,-2.88029z"
                    data-paper-data="{&quot;glyphName&quot;:&quot;C&quot;,&quot;glyphIndex&quot;:14,&quot;word&quot;:1}">
                </path>
                <path
                    d="M443.63051,277.00252v0v0c-2.81677,0 -5.21974,0.9964 -7.2089,2.98919c-1.98916,1.99279 -2.98374,4.39757 -2.98374,7.21434c0,2.80951 0.99458,5.21066 2.98374,7.20345c1.98916,1.99279 4.39213,2.98919 7.2089,2.98919c2.81677,0 5.22155,-0.9964 7.21434,-2.98919c1.99279,-1.99279 2.98919,-4.39394 2.98919,-7.20345c0,-2.81677 -0.9964,-5.22155 -2.98919,-7.21434c-1.99279,-1.99279 -4.39757,-2.98919 -7.21434,-2.98919zM443.63051,278.25482v0c1.75685,0 3.25417,0.87298 4.49195,2.61894c1.23778,1.74596 1.85667,3.85672 1.85667,6.33229c0,2.4683 -0.61889,4.57725 -1.85667,6.32684c-1.23778,1.74959 -2.7351,2.62439 -4.49195,2.62439c-1.74959,0 -3.24509,-0.8748 -4.4865,-2.62439c-1.24141,-1.74959 -1.86212,-3.85854 -1.86212,-6.32684c0,-2.47556 0.62071,-4.58633 1.86212,-6.33229c1.24141,-1.74596 2.73691,-2.61894 4.4865,-2.61894z"
                    data-paper-data="{&quot;glyphName&quot;:&quot;O&quot;,&quot;glyphIndex&quot;:15,&quot;word&quot;:1}">
                </path>
                <path
                    d="M464.75628,295.48213v0v-15.19096l6.75154,17.10752h0.54448h0.55537l6.92577,-17.57577v15.65921c0,0.57352 -0.16153,1.03632 -0.48459,1.38842c-0.32306,0.3521 -0.69875,0.52814 -1.12707,0.52814h5.46657h1.61166c-0.42832,0 -0.80401,-0.17605 -1.12707,-0.52814c-0.32306,-0.3521 -0.48459,-0.8149 -0.48459,-1.38842v-16.56304c0,-0.57352 0.16153,-1.03632 0.48459,-1.38842c0.32306,-0.3521 0.69875,-0.52814 1.12707,-0.52814h-1.61166h-1.12163h-2.73328l-5.98927,15.22363l-6.00016,-15.22363h-5.69525c0.51544,0 0.97825,0.18331 1.38842,0.54992c0.41017,0.36662 0.61526,0.82216 0.61526,1.36664c0,5.52464 0,11.04566 0,16.56304c0,0.57352 -0.16153,1.03632 -0.48459,1.38842c-0.32306,0.3521 -0.69875,0.52814 -1.12707,0.52814h1.61166h2.52638c-0.42832,0 -0.80583,-0.17605 -1.13252,-0.52814c-0.32669,-0.3521 -0.49003,-0.8149 -0.49003,-1.38842z"
                    data-paper-data="{&quot;glyphName&quot;:&quot;M&quot;,&quot;glyphIndex&quot;:16,&quot;lastGlyphOfWord&quot;:true,&quot;word&quot;:1}">
                </path>
            </g>
            <g
                data-paper-data="{&quot;isIcon&quot;:&quot;true&quot;,&quot;iconType&quot;:&quot;icon&quot;,&quot;rawIconId&quot;:&quot;97eb6a59-73b2-4cb0-b93f-27c1daa311de&quot;,&quot;selectedEffects&quot;:{&quot;container&quot;:&quot;&quot;,&quot;transformation&quot;:&quot;&quot;,&quot;pattern&quot;:&quot;&quot;},&quot;isDetailed&quot;:false,&quot;fillRule&quot;:&quot;nonzero&quot;,&quot;bounds&quot;:{&quot;x&quot;:239.72969581057512,&quot;y&quot;:172.25284149571445,&quot;width&quot;:70.54060837884978,&quot;height&quot;:81.67859573641147},&quot;iconStyle&quot;:&quot;standalone&quot;,&quot;suitableAsStandaloneIcon&quot;:true}">
                <path
                    d="M300.40854,191.6283c0.23204,-3.24858 0.46408,-6.7292 -0.11602,-10.0938c-0.69613,-3.9447 -2.43644,-7.19329 -4.98889,-9.16564h-4.29277c2.7845,2.66848 4.64083,6.49716 5.22093,10.90595c0.5801,4.52481 -0.23204,9.04962 -1.04419,12.41422c0,0.23204 0.11602,0.46408 0.34806,0.5801c6.1491,1.74031 11.48605,5.91706 14.73463,11.37003v-9.28166c-2.08837,-2.08837 -4.75685,-3.59664 -7.65737,-4.29277c-1.16021,-0.23204 -1.97235,-1.27623 -1.85633,-2.43644zM305.51345,172.36886c0.5801,0.81215 1.04419,1.74031 1.39225,2.7845c1.27623,4.06072 1.74031,7.88941 1.27623,11.25401c0,0.11602 0,0.23204 0,0.23204c0,0 0.11602,0 0.23204,0c0.5801,0 1.27623,0.11602 1.85633,0.23204v-14.61861zM306.9057,187.79962c-0.46408,-0.46408 -0.69613,-1.04419 -0.5801,-1.62429c0.34806,-3.13256 0,-6.7292 -1.16021,-10.55789c-0.46408,-1.50827 -1.27623,-2.66848 -2.32042,-3.3646h-4.64083c2.08837,2.32042 3.48062,5.45297 4.06072,9.04962c0.5801,3.59664 0.34806,7.19329 0.11602,10.55789c0,0.34806 0.23204,0.5801 0.5801,0.69613c2.66848,0.5801 5.22093,1.85633 7.30931,3.59664v-7.19329c-0.46408,-0.11602 -1.16021,-0.23204 -1.85633,-0.23204c-0.5801,0 -1.16021,-0.23204 -1.62429,-0.69613zM268.15478,228.75494c-0.11602,-0.11602 -0.92817,-0.46408 -1.27623,-0.46408c-2.2044,-0.34806 -3.82868,-0.34806 -5.91706,-0.34806c0,0.5801 0,1.16021 0,1.74031c1.74031,0 5.22093,0 6.61318,-0.46408c0.23204,-0.11602 0.69613,-0.23204 0.69613,-0.46408zM274.88398,228.5229c0,-2.2044 -2.32042,-3.24858 -2.66848,-3.3646c-3.9447,-0.92817 -7.07727,-1.04419 -11.13799,-1.04419c0,0.5801 0,1.16021 0,1.74031c2.2044,0 3.82868,0 6.1491,0.34806c0.5801,0.11602 2.7845,0.69613 2.7845,2.32042c0,1.04419 -0.69613,1.85633 -1.85633,2.2044c-1.50827,0.46408 -4.52481,0.5801 -7.07727,0.5801c0,0.81215 0,1.62429 0,2.32042c2.43644,0 9.39768,-0.11602 11.95013,-1.74031c0.81215,-0.46408 1.74031,-1.50827 1.74031,-3.48062zM276.85633,221.7937c-3.82868,-1.62429 -8.70156,-1.50827 -12.99432,-1.39225c-0.5801,0 -1.16021,0 -1.74031,0c-0.34806,0 -1.04419,0 -1.62429,0c0,0.5801 0,1.27623 0,1.97235c4.17675,0 7.42533,0.11602 11.60207,1.04419c1.04419,0.23204 4.06072,1.97235 4.06072,5.22093c0,3.01654 -1.62429,4.40879 -2.55246,4.98889c-3.01654,1.85633 -10.0938,1.97235 -12.8783,1.97235c0,0.69613 0,1.39225 0,2.08837c3.3646,-0.11602 13.57443,-0.34806 17.28709,-3.01654c0.92817,-0.69613 2.55246,-2.43644 2.55246,-6.26512c0,-2.66848 -1.62429,-5.10491 -4.17675,-6.26512zM306.9057,241.4012c2.08837,-4.17675 2.08837,-5.22093 2.2044,-8.00543c0,-0.5801 0,-1.16021 0,-1.85633c0.46408,-8.12145 -1.16021,-11.83411 -6.26512,-18.79536c-0.34806,-0.46408 -0.69613,-0.92817 -1.04419,-1.39225c-2.32042,-2.7845 -5.10491,-5.10491 -8.23747,-6.7292c-0.92817,-0.46408 -4.75685,-1.74031 -7.54135,-2.55246c-0.81215,-0.23204 -1.50827,-0.81215 -1.74031,-1.62429c-0.23204,-0.81215 -0.11602,-1.74031 0.34806,-2.43644c0.46408,-0.69613 0.81215,-1.27623 1.04419,-1.97235c1.04419,-2.66848 2.2044,-5.80104 2.32042,-9.04962c0.23204,-5.45297 -2.55246,-11.02197 -7.07727,-14.15453h-6.7292c1.50827,0.92817 2.90052,1.97235 4.06072,3.13256c3.24858,3.3646 4.98889,7.65737 4.87287,11.95013c-0.11602,5.56899 -2.90052,10.44187 -7.77339,13.80647c11.95013,3.24858 30.16539,10.44187 29.46927,30.04937c-0.34806,10.0938 -8.46951,17.75117 -19.49148,22.15996h8.9336c5.22093,-1.97235 9.86176,-6.49716 12.76228,-12.41422zM298.20415,253.93144h4.87287c2.66848,-1.39225 4.40879,-4.17675 6.26512,-7.42533c0.11602,-0.23204 0.23204,-0.46408 0.34806,-0.69613v-6.1491c-0.34806,0.69613 -0.69613,1.50827 -1.16021,2.55246c-2.43644,4.98889 -6.1491,9.04962 -10.32584,11.60207zM300.40854,231.42341c0.5801,-17.05505 -15.6628,-23.20415 -31.55764,-27.03283l-6.61318,-1.62429l6.26512,-2.55246c3.01654,-1.16021 10.0938,-4.87287 10.32584,-12.64626c0.11602,-3.13256 -1.16021,-6.26512 -3.59664,-8.81758c-3.9447,-4.06072 -10.32584,-6.26512 -18.09923,-6.26512v0h-17.40311v81.21451h25.87262c17.17107,-1.16021 34.34214,-9.39768 34.80622,-22.27598zM257.24883,191.16422c-1.62429,-2.66848 -1.39225,-6.96124 1.16021,-9.04962c2.7845,-2.32042 6.7292,-1.04419 8.9336,1.39225v0v0c2.2044,3.01654 1.27623,6.61318 -1.85633,8.58554c-2.66848,1.74031 -6.49716,1.85633 -8.35349,-1.16021zM278.82868,235.8322c-4.17675,3.01654 -14.50259,3.24858 -18.44729,3.3646c-0.34806,0 -0.69613,0 -0.92817,0h-0.92817v-0.92817c0,-1.04419 0,-2.08837 0,-3.13256c0,-3.71266 0,-7.65737 -0.11602,-11.48605c0,-1.16021 -0.23204,-4.17675 -0.23204,-4.17675l-0.11602,-0.92817h0.92817c0,0 1.85633,0 2.43644,0c0.46408,0 1.04419,0 1.62429,0c4.40879,-0.11602 9.5137,-0.23204 13.69045,1.62429c3.24858,1.39225 5.22093,4.40879 5.22093,7.88941c0,4.64083 -2.08837,6.84522 -3.3646,7.77339zM265.83436,184.20298c-1.85633,-1.97235 -5.33695,-3.24858 -7.42533,-0.81215c-1.27623,1.62429 -1.39225,4.06072 -0.69613,5.91706c2.2044,5.80104 12.06615,0.46408 8.23747,-5.10491zM260.03332,188.49575c-0.69613,-1.16021 -0.5801,-2.7845 0.46408,-3.59664c1.04419,-0.92817 2.66848,-0.46408 3.59664,0.5801v0v0c1.97235,2.66848 -2.55246,5.80104 -4.17675,3.13256zM305.74549,253.58338h3.59664v-4.40879c-0.92817,1.50827 -2.08837,3.13256 -3.48062,4.40879zM294.25944,198.00944c-1.16021,-0.34806 -1.85633,-1.50827 -1.62429,-2.66848c0.81215,-3.24858 1.62429,-7.54135 1.16021,-11.83411c-0.5801,-4.75685 -2.7845,-8.70156 -6.03308,-10.90595l0.11602,-0.11602h-4.40879c3.9447,3.59664 6.26512,8.9336 6.03308,14.27055c-0.11602,3.59664 -1.27623,6.96124 -2.43644,9.74574c-0.34806,0.81215 -0.81215,1.50827 -1.39225,2.32042c-0.11602,0.23204 -0.11602,0.5801 0,0.81215c0.11602,0.23204 0.34806,0.46408 0.5801,0.5801c2.43644,0.69613 6.61318,2.08837 7.77339,2.66848c3.3646,1.74031 6.26512,4.17675 8.70156,7.19329c0.34806,0.46408 0.69613,0.92817 1.04419,1.50827c2.55246,3.48062 4.29277,6.26512 5.33695,9.16564v-8.81758c-0.23204,-0.5801 -0.46408,-1.16021 -0.69613,-1.74031c-2.7845,-5.80104 -8.23747,-10.32584 -14.50259,-12.06615zM262.46976,188.03166c0.5801,-0.34806 0.69613,-0.92817 0.34806,-1.50827c-0.46408,-0.46408 -1.27623,-0.81215 -1.74031,-0.23204c-0.34806,0.34806 -0.34806,1.04419 -0.11602,1.50827c0.34806,0.69613 1.16021,0.5801 1.62429,0.23204z"
                    data-paper-data="{&quot;isPathIcon&quot;:true}"></path>
            </g>
        </g>
    </g>
</svg>
